<svg width="32" height="32" viewBox="0 0 32 32" fill="none" xmlns="http://www.w3.org/2000/svg">
<path d="M21 16.5V6C21 5.44772 20.5523 5 20 5H5C4.44772 5 4 5.44772 4 6V27C4 27.5523 4.44772 28 5 28H16" stroke="#29263D" stroke-width="1.5" stroke-linecap="round" stroke-linejoin="round"/>
<path d="M7 9H18" stroke="#29263D" stroke-width="1.5" stroke-linecap="round" stroke-linejoin="round"/>
<path d="M7 13H18" stroke="#29263D" stroke-width="1.5" stroke-linecap="round" stroke-linejoin="round"/>
<path d="M7 17H18" stroke="#29263D" stroke-width="1.5" stroke-linecap="round" stroke-linejoin="round"/>
<circle cx="25" cy="25" r="6" stroke="#29263D" stroke-width="1.5" stroke-linejoin="round"/>
<path d="M22 25H25M28 25H25M25 25V22V28" stroke="#29263D" stroke-width="1.5" stroke-linecap="round" stroke-linejoin="round"/>
<path d="M9 22C9 21.4477 9.44772 21 10 21H15C15.5523 21 16 21.4477 16 22V28H9V22Z" stroke="#29263D" stroke-width="1.5" stroke-linejoin="round"/>
</svg>
