<svg width="40" height="40" viewBox="0 0 40 40" fill="none" xmlns="http://www.w3.org/2000/svg">
<path d="M9 17V9C9 7.34315 10.3431 6 12 6H28C29.6569 6 31 7.34315 31 9V31C31 32.6569 29.6569 34 28 34H12C10.3431 34 9 32.6569 9 31V29" stroke-width="1.5" stroke-linecap="round"/>
<path fill-rule="evenodd" clip-rule="evenodd" d="M9 23C10.6569 23 12 21.6569 12 20C12 18.3431 10.6569 17 9 17C7.34315 17 6 18.3431 6 20C6 21.6569 7.34315 23 9 23Z" stroke-width="1.5" stroke-linecap="round"/>
<path d="M12 20H23.75C23.8881 20 24 20.1119 24 20.25V24" stroke-width="1.5" stroke-linecap="round"/>
<path d="M19 20V23" stroke-width="1.5" stroke-linecap="round"/>
</svg>
