<svg width="24" height="24" viewBox="0 0 24 24" fill="none" xmlns="http://www.w3.org/2000/svg">
<path fill-rule="evenodd" clip-rule="evenodd" d="M4.21967 12.705C3.92678 12.4121 3.92678 11.9372 4.21967 11.6443L4.21968 11.6443L11.6443 4.21967C11.9372 3.92678 12.4121 3.92678 12.705 4.21967C12.9978 4.51256 12.9978 4.98744 12.705 5.28033L6.56066 11.4246H19.0882C19.4537 11.4246 19.75 11.7604 19.75 12.1746C19.75 12.5888 19.4537 12.9246 19.0882 12.9246H6.56068L12.705 19.0689C12.9979 19.3618 12.9979 19.8367 12.705 20.1296C12.4121 20.4225 11.9372 20.4225 11.6443 20.1296L4.22266 12.7079L4.21967 12.705Z" />
</svg>
