<svg width="24" height="24" viewBox="0 0 24 24" fill="none" xmlns="http://www.w3.org/2000/svg">
<g clip-path="url(#clip0)">
<path d="M20.3474 5.77806C19.9801 5.40731 19.3847 5.40731 19.0174 5.77806L9.43914 15.4467L4.98263 10.9481C4.61535 10.5774 4.01988 10.5774 3.6526 10.9481L3.27546 11.3288C2.90818 11.6996 2.90818 12.3007 3.27546 12.6714L8.77411 18.2219C9.11277 18.5638 9.64545 18.5904 10.0143 18.3018C10.0294 18.2901 10.0442 18.2777 10.0587 18.2649C10.0743 18.2511 10.0895 18.2367 10.1044 18.2217L20.7245 7.50134C21.0918 7.1306 21.0918 6.52951 20.7245 6.15876L20.3474 5.77806Z" />
</g>
<defs>
<clipPath id="clip0">
<rect width="18" height="13" fill="white" transform="translate(3 5.5)"/>
</clipPath>
</defs>
</svg>
