<svg width="24" height="24" viewBox="0 0 24 24" fill="none" xmlns="http://www.w3.org/2000/svg">
<path fill-rule="evenodd" clip-rule="evenodd" d="M14.5975 6.17075C12.0158 5.02048 8.98496 5.70522 7.1486 7.85363C5.31223 10.002 5.10779 13.1023 6.64613 15.4733C8.18447 17.8442 11.0991 18.9209 13.8095 18.1196C16.5199 17.3183 18.3804 14.8297 18.382 12.0035V11.3353C18.382 10.8885 18.7442 10.5263 19.191 10.5263C19.6378 10.5263 20 10.8885 20 11.3353V12.004C19.998 15.5467 17.6658 18.6666 14.2683 19.6711C10.8708 20.6756 7.21715 19.3258 5.28881 16.3538C3.36046 13.3818 3.61674 9.49554 5.91866 6.80246C8.22058 4.10938 12.0198 3.25106 15.256 4.69294C15.6641 4.87477 15.8476 5.353 15.6657 5.76108C15.4839 6.16917 15.0056 6.35258 14.5975 6.17075Z" />
<path fill-rule="evenodd" clip-rule="evenodd" d="M19.7769 5.22381C20.0743 5.52223 20.0743 6.00607 19.7769 6.30449L12.3308 13.7762C12.0334 14.0746 11.5512 14.0746 11.2538 13.7762L9.22305 11.7384C8.92565 11.44 8.92565 10.9562 9.22305 10.6578C9.52045 10.3594 10.0026 10.3594 10.3 10.6578L11.7923 12.1552L18.7 5.22381C18.9974 4.9254 19.4796 4.9254 19.7769 5.22381Z" />
</svg>
