<svg width="40" height="40" viewBox="0 0 40 40" fill="none" xmlns="http://www.w3.org/2000/svg">
<path d="M21.7128 15.5973C19.5258 14.5261 16.8031 14.8943 14.9954 16.7132L13.556 18.1527C11.726 18.2643 9.9295 19.012 8.53469 20.418C5.48844 23.4643 5.48844 28.4189 8.53469 31.4652C11.581 34.5116 16.5353 34.5116 19.5816 31.4652C20.9764 30.0704 21.724 28.2738 21.8468 26.4437L23.2862 25.0042C25.0827 23.2077 25.4621 20.5407 24.4467 18.3647" stroke-width="1.5" stroke-linecap="round" stroke-linejoin="round"/>
<path d="M18.5266 23.75L16.25 21.4714L20.3952 17.3334L27.7126 10L30 12.2786L22.6718 19.612L18.5266 23.75Z" stroke-width="1.5" stroke-linecap="round" stroke-linejoin="round"/>
<path d="M33.75 9.03105L30.9788 6.25L27.5 9.72879L30.2811 12.5L33.75 9.03105Z" stroke-width="1.5" stroke-linecap="round" stroke-linejoin="round"/>
<path d="M11.25 26.25L13.75 28.75" stroke-width="1.5" stroke-linecap="round" stroke-linejoin="round"/>
</svg>
