<svg width="40" height="40" viewBox="0 0 40 40" fill="none" xmlns="http://www.w3.org/2000/svg">
<path d="M3.24121 16.8965V16.1465C2.827 16.1465 2.49121 16.4823 2.49121 16.8965H3.24121ZM36.7585 16.8965H37.5085C37.5085 16.4823 37.1727 16.1465 36.7585 16.1465V16.8965ZM36.7585 26.8275V27.5775C37.1727 27.5775 37.5085 27.2417 37.5085 26.8275H36.7585ZM3.24121 26.8275H2.49121C2.49121 27.2417 2.827 27.5775 3.24121 27.5775V26.8275ZM11.1276 17.6465C11.5418 17.6465 11.8776 17.3107 11.8776 16.8965C11.8776 16.4823 11.5418 16.1465 11.1276 16.1465V17.6465ZM19.5069 27.5775C19.9211 27.5775 20.2569 27.2417 20.2569 26.8275C20.2569 26.4133 19.9211 26.0775 19.5069 26.0775V27.5775ZM36.0085 16.8965V26.8275H37.5085V16.8965H36.0085ZM3.99121 26.8275V16.8965H2.49121V26.8275H3.99121ZM15.0708 17.6465H36.7585V16.1465H15.0708V17.6465ZM3.24121 17.6465H11.1276V16.1465H3.24121V17.6465ZM36.7585 26.0775H23.943V27.5775H36.7585V26.0775ZM19.5069 26.0775H3.24121V27.5775H19.5069V26.0775Z"/>
<line x1="32.543" y1="16.8965" x2="32.543" y2="26.8275" stroke-width="1.5"/>
<line x1="28.8193" y1="16.8965" x2="28.8193" y2="26.8275" stroke-width="1.5"/>
<line x1="7.24035" y1="10.1255" x2="32.8128" y2="35.6979" stroke-width="1.5" stroke-linecap="round" stroke-linejoin="round"/>
<path d="M23.3728 3.24121C21.342 10.9152 31.4955 7.75532 30.4802 13.1722" stroke-width="1.5" stroke-linecap="round"/>
<path d="M28.0693 3.24121C31.5399 3.24121 32.9557 5.35101 32.5315 7.71554C32.5315 7.71554 38.4811 9.07972 33.5842 13.1722" stroke-width="1.5" stroke-linecap="round" stroke-linejoin="round"/>
</svg>
