<svg width="24" height="24" viewBox="0 0 24 24" fill="none" xmlns="http://www.w3.org/2000/svg">
<path d="M22.5303 1.46969C22.7341 1.67342 22.8031 1.97584 22.7079 2.24778L15.7079 22.2478C15.6063 22.538 15.3378 22.7369 15.0306 22.7494C14.7233 22.7619 14.4395 22.5856 14.3146 22.3046L11.316 15.5577C10.9799 14.8015 11.1443 13.9164 11.7294 13.3312L17.5303 7.53033C17.8232 7.23744 17.8232 6.76256 17.5303 6.46967C17.2374 6.17678 16.7626 6.17678 16.4697 6.46967L10.6688 12.2706C10.0836 12.8557 9.19849 13.0201 8.44227 12.684L1.6954 9.68538C1.41439 9.56049 1.23809 9.27671 1.25063 8.96945C1.26316 8.66219 1.46199 8.39371 1.75224 8.29213L21.7522 1.29213C22.0242 1.19695 22.3266 1.26596 22.5303 1.46969Z" />
</svg>
