<svg width="24" height="24" viewBox="0 0 24 24" fill="none" xmlns="http://www.w3.org/2000/svg">
<path fill-rule="evenodd" clip-rule="evenodd" d="M12.9402 3.18275C12.6353 2.27118 11.3453 2.27284 11.0427 3.18519L9.3479 8.29513C9.21222 8.7042 8.82972 8.98032 8.39874 8.98032H3.05954C2.0926 8.98032 1.68865 10.2162 2.46892 10.7873L6.73016 13.9062C7.07969 14.162 7.22478 14.6138 7.08957 15.0253L5.4659 19.9669C5.1653 20.8818 6.20462 21.6512 6.99186 21.0966L11.4128 17.982C11.7577 17.739 12.2181 17.7386 12.5634 17.9811L17.0013 21.0973C17.7898 21.651 18.8283 20.8789 18.5252 19.9643L16.8888 15.0277C16.752 14.6151 16.8975 14.1614 17.2487 13.9052L21.5217 10.7882C22.3036 10.2179 21.9002 8.98032 20.9324 8.98032H15.5996C15.1696 8.98032 14.7877 8.70539 14.6512 8.29757L12.9402 3.18275Z" />
</svg>
