<svg width="32" height="32" viewBox="0 0 32 32" fill="none" xmlns="http://www.w3.org/2000/svg">
<path d="M16 27H7M7 27H5C4.44772 27 4 26.5523 4 26V21V6C4 5.44772 4.44772 5 5 5H20C20.5523 5 21 5.44772 21 6V16.5M7 27V11C7 10.4477 7.44772 10 8 10H17C17.5523 10 18 10.4477 18 11V19" stroke="#29263D" stroke-width="1.5" stroke-linecap="round" stroke-linejoin="round"/>
<circle cx="25" cy="25" r="6" stroke="#29263D" stroke-width="1.5" stroke-linejoin="round"/>
<path d="M22 25H25M28 25H25M25 25V22V28" stroke="#29263D" stroke-width="1.5" stroke-linecap="round" stroke-linejoin="round"/>
<circle cx="11" cy="18" r="1" fill="#29263D" stroke="#29263D" stroke-width="1.5" stroke-linecap="round" stroke-linejoin="round"/>
</svg>
