<svg width="24" height="24" viewBox="0 0 24 24" fill="none" xmlns="http://www.w3.org/2000/svg">
<path d="M22 17.75C22.4142 17.75 22.75 17.4142 22.75 17C22.75 16.5858 22.4142 16.25 22 16.25V17.75ZM2 16.25C1.58579 16.25 1.25 16.5858 1.25 17C1.25 17.4142 1.58579 17.75 2 17.75V16.25ZM5 9H4.25H5ZM19 9H19.75H19ZM13.73 21L14.3787 21.3763C14.5133 21.1443 14.5137 20.8581 14.3799 20.6257C14.246 20.3933 13.9982 20.25 13.73 20.25V21ZM10.27 21V20.25C10.0017 20.25 9.75392 20.3933 9.62005 20.6257C9.48618 20.8581 9.48662 21.1443 9.6212 21.3763L10.27 21ZM22 16.25H2V17.75H22V16.25ZM2 17.75C4.07107 17.75 5.75 16.0711 5.75 14H4.25C4.25 15.2426 3.24264 16.25 2 16.25V17.75ZM5.75 14V9H4.25V14H5.75ZM5.75 9C5.75 5.54822 8.54822 2.75 12 2.75V1.25C7.71979 1.25 4.25 4.71979 4.25 9H5.75ZM12 2.75C15.4518 2.75 18.25 5.54822 18.25 9H19.75C19.75 4.71979 16.2802 1.25 12 1.25V2.75ZM18.25 9V14H19.75V9H18.25ZM18.25 14C18.25 16.0711 19.9289 17.75 22 17.75V16.25C20.7574 16.25 19.75 15.2426 19.75 14H18.25ZM13.0812 20.6237C12.8576 21.0092 12.4456 21.2465 12 21.2465V22.7465C12.9804 22.7465 13.8867 22.2245 14.3787 21.3763L13.0812 20.6237ZM12 21.2465C11.5543 21.2465 11.1423 21.0092 10.9187 20.6237L9.6212 21.3763C10.1132 22.2245 11.0195 22.7465 12 22.7465V21.2465ZM10.27 21.75H13.73V20.25H10.27V21.75Z" />
</svg>
