<svg width="24" height="24" viewBox="0 0 24 24" fill="none" xmlns="http://www.w3.org/2000/svg">
<path d="M22 18.2222C22 18.6937 21.8084 19.1459 21.4675 19.4793C21.1265 19.8127 20.664 20 20.1818 20H3.81818C3.33597 20 2.87351 19.8127 2.53253 19.4793C2.19156 19.1459 2 18.6937 2 18.2222V8.44444C2 7.97295 2.19156 7.52076 2.53253 7.18737C2.87351 6.85397 3.33597 6.66667 3.81818 6.66667H7.45455L9.27273 4H14.7273L16.5455 6.66667H20.1818C20.664 6.66667 21.1265 6.85397 21.4675 7.18737C21.8084 7.52076 22 7.97295 22 8.44444V18.2222Z" stroke-width="1.5" stroke-linecap="round" stroke-linejoin="round"/>
<path d="M12 16.5C13.933 16.5 15.5 14.933 15.5 13C15.5 11.067 13.933 9.5 12 9.5C10.067 9.5 8.5 11.067 8.5 13C8.5 14.933 10.067 16.5 12 16.5Z" stroke-width="1.5" stroke-linecap="round" stroke-linejoin="round"/>
</svg>
