<svg width="24" height="24" viewBox="0 0 24 24" fill="none" xmlns="http://www.w3.org/2000/svg">
<path d="M19.7264 5.79851C20.0912 5.4337 20.0912 4.84222 19.7264 4.4774L19.5226 4.27361C19.1578 3.9088 18.5663 3.9088 18.2015 4.27361L12 10.4751L5.79851 4.27368C5.4337 3.90887 4.84222 3.90887 4.4774 4.27368L4.27361 4.47747C3.9088 4.84228 3.9088 5.43376 4.27361 5.79857L10.4751 12L4.27366 18.2015C3.90885 18.5663 3.90884 19.1578 4.27366 19.5226L4.47745 19.7264C4.84226 20.0912 5.43374 20.0912 5.79855 19.7264L12 13.5249L18.2015 19.7264C18.5663 20.0912 19.1578 20.0912 19.5226 19.7264L19.7264 19.5226C20.0912 19.1578 20.0912 18.5663 19.7264 18.2015L13.5249 12L19.7264 5.79851Z" />
</svg>
