<svg width="24" height="24" viewBox="0 0 24 24" fill="none" xmlns="http://www.w3.org/2000/svg">
<path fill-rule="evenodd" clip-rule="evenodd" d="M12 21C16.9706 21 21 16.9706 21 12C21 7.02944 16.9706 3 12 3C7.02944 3 3 7.02944 3 12C3 16.9706 7.02944 21 12 21Z" stroke-width="1.5" stroke-linecap="round" stroke-linejoin="round"/>
<path fill-rule="evenodd" clip-rule="evenodd" d="M12 16C14.2091 16 16 14.2091 16 12C16 9.79086 14.2091 8 12 8C9.79086 8 8 9.79086 8 12C8 14.2091 9.79086 16 12 16Z" stroke-width="1.5" stroke-linecap="round" stroke-linejoin="round"/>
<path d="M6 6L9 9" stroke-width="1.5" stroke-linecap="round" stroke-linejoin="round"/>
<path d="M15 15L18 18" stroke-width="1.5" stroke-linecap="round" stroke-linejoin="round"/>
<path d="M15 9L18 6" stroke-width="1.5" stroke-linecap="round" stroke-linejoin="round"/>
<path d="M15 9L18 6" stroke-width="1.5" stroke-linecap="round" stroke-linejoin="round"/>
<path d="M6 18L9 15" stroke-width="1.5" stroke-linecap="round" stroke-linejoin="round"/>
</svg>
