<svg width="24" height="24" viewBox="0 0 24 24" fill="none" xmlns="http://www.w3.org/2000/svg">
<path d="M16.1663 19.5V17.8333C16.1663 15.9924 14.674 14.5 12.833 14.5H6.16634C4.32539 14.5 2.83301 15.9924 2.83301 17.8333V19.5" stroke-width="1.5" stroke-linecap="round" stroke-linejoin="round"/>
<path fill-rule="evenodd" clip-rule="evenodd" d="M9.50033 11.1667C11.3413 11.1667 12.8337 9.67428 12.8337 7.83333C12.8337 5.99238 11.3413 4.5 9.50033 4.5C7.65938 4.5 6.16699 5.99238 6.16699 7.83333C6.16699 9.67428 7.65938 11.1667 9.50033 11.1667Z" stroke-width="1.5" stroke-linecap="round" stroke-linejoin="round"/>
<path d="M21.167 19.5001V17.8334C21.1659 16.3143 20.1378 14.9882 18.667 14.6084" stroke-width="1.5" stroke-linecap="round" stroke-linejoin="round"/>
<path d="M15.333 4.6084C16.8079 4.98604 17.8395 6.31506 17.8395 7.83757C17.8395 9.36007 16.8079 10.6891 15.333 11.0667" stroke-width="1.5" stroke-linecap="round" stroke-linejoin="round"/>
</svg>
