<svg width="24" height="24" viewBox="0 0 24 24" fill="none" xmlns="http://www.w3.org/2000/svg">
<rect x="2.75" y="2.75" width="18.5" height="18.5" rx="9.25" stroke-width="1.5"/>
<path fill-rule="evenodd" clip-rule="evenodd" d="M9.53033 7.46967C9.23744 7.17678 8.76256 7.17678 8.46967 7.46967C8.17678 7.76256 8.17678 8.23744 8.46967 8.53033L11.1893 11.25H9C8.58579 11.25 8.25 11.5858 8.25 12C8.25 12.4142 8.58579 12.75 9 12.75H11.25V13.75H9C8.58579 13.75 8.25 14.0858 8.25 14.5C8.25 14.9142 8.58579 15.25 9 15.25H11.25V16.5C11.25 16.9142 11.5858 17.25 12 17.25C12.4142 17.25 12.75 16.9142 12.75 16.5V15.25H15C15.4142 15.25 15.75 14.9142 15.75 14.5C15.75 14.0858 15.4142 13.75 15 13.75H12.75V12.75H15C15.4142 12.75 15.75 12.4142 15.75 12C15.75 11.5858 15.4142 11.25 15 11.25H12.8107L15.5303 8.53033C15.8232 8.23744 15.8232 7.76256 15.5303 7.46967C15.2374 7.17678 14.7626 7.17678 14.4697 7.46967L12 9.93934L9.53033 7.46967Z" />
</svg>
