<svg width="40" height="40" viewBox="0 0 40 40" fill="none" xmlns="http://www.w3.org/2000/svg">
<path d="M16.1958 23.4548C16.7661 23.4548 17.2285 23.0122 17.2285 22.4662C17.2285 21.9202 16.7661 21.4775 16.1958 21.4775C15.6254 21.4775 15.1631 21.9202 15.1631 22.4662C15.1631 23.0122 15.6254 23.4548 16.1958 23.4548Z" />
<path d="M23.769 23.4548C24.3394 23.4548 24.8017 23.0122 24.8017 22.4662C24.8017 21.9202 24.3394 21.4775 23.769 21.4775C23.1987 21.4775 22.7363 21.9202 22.7363 22.4662C22.7363 23.0122 23.1987 23.4548 23.769 23.4548Z" />
<path d="M14.9225 31.1989L13.2978 30.9617C10.8124 30.5992 9.12565 30.118 8.15491 29.7753C7.22547 29.4523 6.95697 29.2942 6.71601 29.1623L6 28.7669L6.38554 28.1869C7.62478 26.3282 8.18933 24.3246 8.10671 22.0771C8.07229 21.016 7.92771 20.001 7.79002 19.0189C7.64544 17.9775 7.50775 17.0021 7.50775 16.0596C7.50775 12.6389 8.58864 9.81138 10.6403 7.88683C12.6506 5.99523 15.5559 5 19.0396 5C21.1394 5 23.2117 5.9425 25.0224 7.73524C27.5284 7.74183 29.4423 8.71728 30.7229 10.6418C32.0929 12.6982 32.2926 15.2423 32.2926 16.5803C32.2926 17.5821 32.1687 18.551 32.0379 19.5725C31.9139 20.5216 31.79 21.4971 31.7762 22.4989C31.7418 24.5553 32.3339 26.4139 33.5732 28.1737L34 28.7801L33.2358 29.1689C32.9811 29.3008 32.7195 29.4392 31.7625 29.7621C30.654 30.1312 28.7952 30.6519 26.2134 31.0078L24.7608 31.2055" stroke-width="1.5" stroke-miterlimit="10" stroke-linejoin="round"/>
<path d="M19.9833 34.0002C15.9282 33.1104 12.8163 30.2763 11.7217 23.4547C11.7217 20.8777 13.1262 19.8758 14.4962 19.2365C15.4945 18.7752 16.6305 18.5049 17.732 18.2545C18.2897 18.1227 18.8129 18.004 19.2879 17.8656C22.1382 17.022 23.522 15.1633 24.0866 14.1286L24.5341 13.3179L25.195 13.9836C26.3379 15.137 28.2449 17.6613 28.2449 21.6686C28.2449 26.8688 24.9885 30.9618 24.8508 31.1331L24.7544 31.265C23.2811 33.0247 21.5874 34.0002 19.9833 34.0002Z" stroke-width="1.5" stroke-miterlimit="10" stroke-linejoin="round"/>
</svg>
